<?xml version="1.0" standalone="no"?>
<!DOCTYPE svg PUBLIC "-//W3C//DTD SVG 20010904//EN"
 "http://www.w3.org/TR/2001/REC-SVG-20010904/DTD/svg10.dtd">
<svg version="1.0" xmlns="http://www.w3.org/2000/svg"
 width="1000.000000pt" height="1000.000000pt" viewBox="0 0 1000.000000 1000.000000"
 preserveAspectRatio="xMidYMid meet">
<metadata>
Created by potrace 1.14, written by Peter Selinger 2001-2017
</metadata>
<g transform="translate(0.000000,1000.000000) scale(0.100000,-0.100000)"
fill="#000000" stroke="none">
<path d="M0 5000 l0 -5000 5000 0 5000 0 0 5000 0 5000 -5000 0 -5000 0 0
-5000z m5065 1220 l0 -295 -414 -695 c-228 -382 -533 -895 -679 -1140 -146
-245 -291 -489 -323 -543 -33 -54 -59 -100 -59 -102 0 -3 333 -5 740 -5 l740
0 0 -220 0 -220 -970 0 -970 0 0 280 c0 228 3 286 15 309 8 16 343 581 744
1255 l729 1226 -741 2 -742 3 -3 210 c-1 115 0 215 2 222 4 11 193 13 968 11
l963 -3 0 -295z m-3675 -415 l0 -705 520 0 520 0 0 705 0 705 220 0 220 0 0
-1755 0 -1755 -220 0 -220 0 0 830 0 830 -520 0 -520 0 0 -830 0 -830 -225 0
-225 0 0 1748 c0 962 3 1752 7 1755 3 4 105 7 225 7 l218 0 0 -705z m7509 518
l160 -177 1 -660 0 -661 -109 -109 -110 -109 110 -116 109 -116 0 -510 0 -510
-179 -177 -179 -178 -821 0 -821 0 0 220 0 220 775 0 775 0 0 470 0 470 -592
0 -593 0 -182 182 -183 183 1 705 1 705 179 173 180 172 659 0 659 0 160 -177z
m-2281 -1640 l-3 -228 -645 0 -645 0 -3 228 -2 227 650 0 650 0 -2 -227z"/>
<path d="M7510 5445 l0 -615 550 0 550 0 0 615 0 615 -550 0 -550 0 0 -615z"/>
</g>
</svg>
